<?xml version="1.0" encoding="UTF-8"?>
<svg width="654px" height="193px" viewBox="0 0 654 193" version="1.1" xmlns="http://www.w3.org/2000/svg" xmlns:xlink="http://www.w3.org/1999/xlink">
    <!-- Generator: Sketch 61 (89581) - https://sketch.com -->
    <title>Untitled</title>
    <desc>Created with Sketch.</desc>
    <g id="Page-1" stroke="none" stroke-width="1" fill="none" fill-rule="evenodd">
        <path d="M250.3,147.5 C256.9,147.5 262.433333,146.45 266.9,144.35 C271.366667,142.25 275,139.8 277.8,137 L277.8,137 L277.8,142.9 C277.8,143.633333 278.016667,144.166667 278.45,144.5 C278.883333,144.833333 279.466667,145 280.2,145 L280.2,145 L316.4,145 C316.933333,145 317.35,144.866667 317.65,144.6 C317.95,144.333333 318.133333,144.033333 318.2,143.7 C318.266667,143.366667 318.183333,143.05 317.95,142.75 C317.716667,142.45 317.333333,142.233333 316.8,142.1 C316.266667,142.033333 315.35,141.816667 314.05,141.45 C312.75,141.083333 311.416667,140.45 310.05,139.55 C308.683333,138.65 307.466667,137.383333 306.4,135.75 C305.333333,134.116667 304.8,131.966667 304.8,129.3 L304.8,129.3 L304.8,57.6 C304.8,55.8666667 304,55 302.4,55 L302.4,55 L266.2,55 C265.666667,55 265.25,55.1333333 264.95,55.4 C264.65,55.6666667 264.466667,55.9666667 264.4,56.3 C264.333333,56.6333333 264.416667,56.9666667 264.65,57.3 C264.883333,57.6333333 265.266667,57.8333333 265.8,57.9 C266.333333,58.0333333 267.25,58.2666667 268.55,58.6 C269.85,58.9333333 271.183333,59.55 272.55,60.45 C273.916667,61.35 275.133333,62.6166667 276.2,64.25 C277.266667,65.8833333 277.8,68.0333333 277.8,70.7 L277.8,70.7 L277.8,114 C277.8,116.666667 277.633333,119.45 277.3,122.35 C276.966667,125.25 276.233333,127.9 275.1,130.3 C273.966667,132.7 272.316667,134.683333 270.15,136.25 C267.983333,137.816667 265.033333,138.6 261.3,138.6 C257.766667,138.6 254.95,137.933333 252.85,136.6 C250.75,135.266667 249.116667,133.516667 247.95,131.35 C246.783333,129.183333 245.983333,126.766667 245.55,124.1 C245.116667,121.433333 244.866667,118.766667 244.8,116.1 L244.8,116.1 L244.8,57.6 C244.8,55.8666667 244,55 242.4,55 L242.4,55 L206.2,55 C205.666667,55 205.25,55.1333333 204.95,55.4 C204.65,55.6666667 204.466667,55.9666667 204.4,56.3 C204.333333,56.6333333 204.416667,56.9666667 204.65,57.3 C204.883333,57.6333333 205.266667,57.8333333 205.8,57.9 C206.333333,58.0333333 207.25,58.2666667 208.55,58.6 C209.85,58.9333333 211.183333,59.55 212.55,60.45 C213.916667,61.35 215.133333,62.6166667 216.2,64.25 C217.266667,65.8833333 217.8,68.0333333 217.8,70.7 L217.8,70.7 L217.8,109.8 C217.8,112.2 217.85,114.783333 217.95,117.55 C218.05,120.316667 218.383333,123.1 218.95,125.9 C219.516667,128.7 220.45,131.4 221.75,134 C223.05,136.6 224.916667,138.9 227.35,140.9 C229.783333,142.9 232.85,144.5 236.55,145.7 C240.25,146.9 244.833333,147.5 250.3,147.5 Z M374.1,145 C374.633333,145 375.05,144.866667 375.35,144.6 C375.65,144.333333 375.833333,144.033333 375.9,143.7 C375.966667,143.366667 375.883333,143.05 375.65,142.75 C375.416667,142.45 375.033333,142.233333 374.5,142.1 C373.966667,142.033333 373.05,141.816667 371.75,141.45 C370.45,141.083333 369.116667,140.45 367.75,139.55 C366.383333,138.65 365.166667,137.383333 364.1,135.75 C363.033333,134.116667 362.5,131.966667 362.5,129.3 L362.5,129.3 L362.5,83.2 C362.5,81.2 362.616667,78.9166667 362.85,76.35 C363.083333,73.7833333 363.716667,71.3666667 364.75,69.1 C365.783333,66.8333333 367.366667,64.9333333 369.5,63.4 C371.633333,61.8666667 374.633333,61.1 378.5,61.1 C382.233333,61.1 385.216667,61.8833333 387.45,63.45 C389.683333,65.0166667 391.383333,67.0166667 392.55,69.45 C393.716667,71.8833333 394.483333,74.5833333 394.85,77.55 C395.216667,80.5166667 395.433333,83.4 395.5,86.2 L395.5,86.2 L395.5,129.3 C395.5,131.966667 394.966667,134.116667 393.9,135.75 C392.833333,137.383333 391.616667,138.65 390.25,139.55 C388.883333,140.45 387.55,141.083333 386.25,141.45 C384.95,141.816667 384.033333,142.033333 383.5,142.1 C382.966667,142.233333 382.583333,142.45 382.35,142.75 C382.116667,143.05 382.033333,143.366667 382.1,143.7 C382.166667,144.033333 382.35,144.333333 382.65,144.6 C382.95,144.866667 383.366667,145 383.9,145 L383.9,145 L434.1,145 C434.633333,145 435.05,144.866667 435.35,144.6 C435.65,144.333333 435.833333,144.033333 435.9,143.7 C435.966667,143.366667 435.883333,143.05 435.65,142.75 C435.416667,142.45 435.033333,142.233333 434.5,142.1 C433.966667,142.033333 433.05,141.816667 431.75,141.45 C430.45,141.083333 429.116667,140.45 427.75,139.55 C426.383333,138.65 425.166667,137.383333 424.1,135.75 C423.033333,134.116667 422.5,131.966667 422.5,129.3 L422.5,129.3 L422.5,90.2 C422.5,87.8 422.45,85.2166667 422.35,82.45 C422.25,79.6833333 421.916667,76.9 421.35,74.1 C420.783333,71.3 419.85,68.6 418.55,66 C417.25,63.4 415.383333,61.1 412.95,59.1 C410.516667,57.1 407.45,55.5 403.75,54.3 C400.05,53.1 395.466667,52.5 390,52.5 C386.666667,52.5 383.616667,52.7666667 380.85,53.3 C378.083333,53.8333333 375.583333,54.5333333 373.35,55.4 C371.116667,56.2666667 369.1,57.2833333 367.3,58.45 C365.5,59.6166667 363.9,60.8333333 362.5,62.1 L362.5,62.1 L362.5,53.5 C362.5,52.5666667 362.183333,52.0666667 361.55,52 C360.916667,51.9333333 360.3,52.1 359.7,52.5 C357.433333,54.0333333 354.866667,55.55 352,57.05 C349.133333,58.55 346.166667,59.95 343.1,61.25 C340.033333,62.55 336.983333,63.7166667 333.95,64.75 C330.916667,65.7833333 328.1,66.6 325.5,67.2 C324.5,67.4666667 324.016667,67.95 324.05,68.65 C324.083333,69.35 324.533333,69.8 325.4,70 C325.6,70.0666667 326.15,70.2 327.05,70.4 C327.95,70.6 328.933333,70.8333333 330,71.1 C331.066667,71.3666667 332.016667,71.6 332.85,71.8 C333.683333,72 334.166667,72.1 334.3,72.1 C335.1,72.3 335.5,72.8333333 335.5,73.7 L335.5,73.7 L335.5,129.3 C335.5,131.966667 334.966667,134.116667 333.9,135.75 C332.833333,137.383333 331.616667,138.65 330.25,139.55 C328.883333,140.45 327.55,141.083333 326.25,141.45 C324.95,141.816667 324.033333,142.033333 323.5,142.1 C322.966667,142.233333 322.583333,142.45 322.35,142.75 C322.116667,143.05 322.033333,143.366667 322.1,143.7 C322.166667,144.033333 322.35,144.333333 322.65,144.6 C322.95,144.866667 323.366667,145 323.9,145 L323.9,145 L374.1,145 Z M462.9,39 C465.3,39 467.516667,38.5666667 469.55,37.7 C471.583333,36.8333333 473.366667,35.6833333 474.9,34.25 C476.433333,32.8166667 477.633333,31.1166667 478.5,29.15 C479.366667,27.1833333 479.8,25.1 479.8,22.9 C479.8,20.7 479.4,18.6333333 478.6,16.7 C477.8,14.7666667 476.683333,13.0833333 475.25,11.65 C473.816667,10.2166667 472.116667,9.08333333 470.15,8.25 C468.183333,7.41666667 466,7 463.6,7 C461.266667,7 459.066667,7.43333333 457,8.3 C454.933333,9.16666667 453.15,10.3333333 451.65,11.8 C450.15,13.2666667 448.966667,14.9833333 448.1,16.95 C447.233333,18.9166667 446.8,21 446.8,23.2 C446.8,25.4 447.2,27.4666667 448,29.4 C448.8,31.3333333 449.916667,33 451.35,34.4 C452.783333,35.8 454.483333,36.9166667 456.45,37.75 C458.416667,38.5833333 460.566667,39 462.9,39 Z M489.4,145 C489.933333,145 490.35,144.866667 490.65,144.6 C490.95,144.333333 491.133333,144.033333 491.2,143.7 C491.266667,143.366667 491.183333,143.05 490.95,142.75 C490.716667,142.45 490.333333,142.233333 489.8,142.1 C489.266667,142.033333 488.35,141.816667 487.05,141.45 C485.75,141.083333 484.416667,140.45 483.05,139.55 C481.683333,138.65 480.466667,137.383333 479.4,135.75 C478.333333,134.116667 477.8,131.966667 477.8,129.3 L477.8,129.3 L477.8,53.5 C477.8,52.5666667 477.483333,52.0666667 476.85,52 C476.216667,51.9333333 475.6,52.1 475,52.5 C472.733333,54.0333333 470.166667,55.55 467.3,57.05 C464.433333,58.55 461.466667,59.95 458.4,61.25 C455.333333,62.55 452.283333,63.7166667 449.25,64.75 C446.216667,65.7833333 443.4,66.6 440.8,67.2 C439.8,67.4666667 439.316667,67.95 439.35,68.65 C439.383333,69.35 439.833333,69.8 440.7,70 C440.9,70.0666667 441.45,70.2 442.35,70.4 C443.25,70.6 444.233333,70.8333333 445.3,71.1 C446.366667,71.3666667 447.316667,71.6 448.15,71.8 C448.983333,72 449.466667,72.1 449.6,72.1 C450.4,72.3 450.8,72.8333333 450.8,73.7 L450.8,73.7 L450.8,129.3 C450.8,131.966667 450.266667,134.116667 449.2,135.75 C448.133333,137.383333 446.916667,138.65 445.55,139.55 C444.183333,140.45 442.85,141.083333 441.55,141.45 C440.25,141.816667 439.333333,142.033333 438.8,142.1 C438.266667,142.233333 437.883333,142.45 437.65,142.75 C437.416667,143.05 437.333333,143.366667 437.4,143.7 C437.466667,144.033333 437.65,144.333333 437.95,144.6 C438.25,144.866667 438.666667,145 439.2,145 L439.2,145 L489.4,145 Z M532.5,147.5 C535.566667,147.5 538.483333,147.15 541.25,146.45 C544.016667,145.75 546.566667,144.75 548.9,143.45 C551.233333,142.15 553.316667,140.616667 555.15,138.85 C556.983333,137.083333 558.5,135.133333 559.7,133 C560.166667,132.2 560.133333,131.433333 559.6,130.7 C559.066667,129.966667 558.2,129.9 557,130.5 C555.6,131.233333 553.666667,132.016667 551.2,132.85 C548.733333,133.683333 546.066667,134.1 543.2,134.1 C541.8,134.1 540.416667,133.866667 539.05,133.4 C537.683333,132.933333 536.483333,132.216667 535.45,131.25 C534.416667,130.283333 533.583333,129.116667 532.95,127.75 C532.316667,126.383333 532,124.8 532,123 L532,61.5 C532,61.0333333 532.233333,60.8 532.7,60.8 L539.658041,60.8 C540.791374,60.8 541.824708,60.3166667 542.758041,59.35 C543.691374,58.3833333 544.158041,57.4666667 544.158041,56.6 C544.158041,55.9333333 543.974708,55.5 543.608041,55.3 C543.241374,55.1 542.546501,55 540.946501,55 L540.658041,55 L532.8,55 C532.266667,55 532,54.7666667 532,54.3 L532,20.9 C532,19.8333333 531.683333,19.1666667 531.05,18.9 C530.416667,18.6333333 529.733333,18.7 529,19.1 C527.4,20.1 525.65,21.05 523.75,21.95 C521.85,22.85 519.916667,23.6833333 517.95,24.45 C515.983333,25.2166667 514.05,25.8833333 512.15,26.45 C510.25,27.0166667 508.466667,27.4666667 506.8,27.8 C505.6,28 505,28.8333333 505,30.3 L505,54.2 C505,54.7333333 504.766667,55 504.3,55 L502.1,55 C500.966667,55 500.016667,55.4833333 499.25,56.45 C498.483333,57.4166667 498.1,58.3333333 498.1,59.2 C498.1,59.8666667 498.283333,60.3 498.65,60.5 C499.016667,60.7 500,60.8 501.6,60.8 L504.2,60.8 C504.733333,60.8 505,61.0666667 505,61.6 L505,117.8 C505,123.733333 505.816667,128.616667 507.45,132.45 C509.083333,136.283333 511.2,139.316667 513.8,141.55 C516.4,143.783333 519.333333,145.333333 522.6,146.2 C525.866667,147.066667 529.166667,147.5 532.5,147.5 Z M572.3,192.5 C576.7,192.5 580.383333,191 583.35,188 C586.316667,185 588.9,181 591.1,176 L591.1,176 L608.3,137.6 C609.5,134.866667 611.033333,131.433333 612.9,127.3 C614.766667,123.166667 616.733333,118.783333 618.8,114.15 C620.866667,109.516667 622.966667,104.833333 625.1,100.1 C627.233333,95.3666667 629.2,91 631,87 C632.8,83 634.35,79.5833333 635.65,76.75 C636.95,73.9166667 637.8,72.1 638.2,71.3 C639.2,69.3666667 640.166667,67.6833333 641.1,66.25 C642.033333,64.8166667 643.05,63.5666667 644.15,62.5 C645.25,61.4333333 646.466667,60.55 647.8,59.85 C649.133333,59.15 650.666667,58.5666667 652.4,58.1 C652.933333,57.9666667 653.316667,57.7333333 653.55,57.4 C653.783333,57.0666667 653.866667,56.7166667 653.8,56.35 C653.733333,55.9833333 653.55,55.6666667 653.25,55.4 C652.95,55.1333333 652.566667,55 652.1,55 L652.1,55 L622.2,55 C621.666667,55 621.25,55.1333333 620.95,55.4 C620.65,55.6666667 620.466667,55.9833333 620.4,56.35 C620.333333,56.7166667 620.4,57.0833333 620.6,57.45 C620.8,57.8166667 621.2,58.0666667 621.8,58.2 C622.8,58.4666667 623.866667,58.8166667 625,59.25 C626.133333,59.6833333 627.1,60.35 627.9,61.25 C628.7,62.15 629.216667,63.35 629.45,64.85 C629.683333,66.35 629.433333,68.3 628.7,70.7 C628.433333,71.6333333 627.95,73.0833333 627.25,75.05 C626.55,77.0166667 625.766667,79.1833333 624.9,81.55 C624.033333,83.9166667 623.1,86.4 622.1,89 C621.1,91.6 620.183333,94.0166667 619.35,96.25 C618.516667,98.4833333 617.766667,100.4 617.1,102 C616.433333,103.6 616,104.633333 615.8,105.1 C615.333333,105.966667 614.866667,105.966667 614.4,105.1 C614.266667,104.9 613.866667,104.05 613.2,102.55 C612.533333,101.05 611.733333,99.2166667 610.8,97.05 C609.866667,94.8833333 608.866667,92.4833333 607.8,89.85 C606.733333,87.2166667 605.7,84.6666667 604.7,82.2 C603.7,79.7333333 602.8,77.4666667 602,75.4 C601.2,73.3333333 600.633333,71.7666667 600.3,70.7 C599.566667,68.3 599.333333,66.35 599.6,64.85 C599.866667,63.35 600.433333,62.15 601.3,61.25 C602.166667,60.35 603.183333,59.6833333 604.35,59.25 C605.516667,58.8166667 606.6,58.4666667 607.6,58.2 C608.2,58.0666667 608.6,57.8166667 608.8,57.45 C609,57.0833333 609.066667,56.7166667 609,56.35 C608.933333,55.9833333 608.733333,55.6666667 608.4,55.4 C608.066667,55.1333333 607.666667,55 607.2,55 L607.2,55 L557.2,55 C556.666667,55 556.25,55.1333333 555.95,55.4 C555.65,55.6666667 555.483333,55.9833333 555.45,56.35 C555.416667,56.7166667 555.516667,57.0666667 555.75,57.4 C555.983333,57.7333333 556.366667,57.9666667 556.9,58.1 C558.7,58.5666667 560.266667,59.15 561.6,59.85 C562.933333,60.55 564.133333,61.4333333 565.2,62.5 C566.266667,63.5666667 567.266667,64.8166667 568.2,66.25 C569.133333,67.6833333 570.1,69.3666667 571.1,71.3 C571.566667,72.2333333 572.466667,74.2166667 573.8,77.25 C575.133333,80.2833333 576.733333,83.9166667 578.6,88.15 C580.466667,92.3833333 582.466667,97 584.6,102 C586.733333,107 588.833333,111.883333 590.9,116.65 C592.966667,121.416667 594.866667,125.833333 596.6,129.9 C598.333333,133.966667 599.733333,137.233333 600.8,139.7 L600.8,139.7 L587.7,168.9 C586.766667,171.033333 585.8,172.316667 584.8,172.75 C583.8,173.183333 582.666667,173.233333 581.4,172.9 C580.133333,172.566667 578.733333,172.083333 577.2,171.45 C575.666667,170.816667 573.866667,170.5 571.8,170.5 C570.266667,170.5 568.766667,170.7 567.3,171.1 C565.833333,171.5 564.516667,172.133333 563.35,173 C562.183333,173.866667 561.25,174.966667 560.55,176.3 C559.85,177.633333 559.5,179.233333 559.5,181.1 C559.5,183.166667 559.883333,184.916667 560.65,186.35 C561.416667,187.783333 562.4,188.95 563.6,189.85 C564.8,190.75 566.166667,191.416667 567.7,191.85 C569.233333,192.283333 570.766667,192.5 572.3,192.5 Z" id="unity" fill="#000000" fill-rule="nonzero"></path>
        <path d="M4.5,4.5 L4.5,80.7430668 C4.90416992,90.8424248 7.71290242,98.6001964 12.8510755,104.205604 C17.9268433,109.742931 24.9687401,112.846811 34.2255365,113.500148 L113.5,113.500148 L113.5,4.5 L4.5,4.5 Z" id="Rectangle" stroke="#000000" stroke-width="9"></path>
        <path d="M57.5,58.5 L57.5,134.743067 C57.9041699,144.842425 60.7129024,152.600196 65.8510755,158.205604 C70.9268433,163.742931 77.9687401,166.846811 87.2255365,167.500148 L166.5,167.500148 L166.5,58.5 L57.5,58.5 Z" id="Rectangle" stroke="#000000" stroke-width="9" transform="translate(112.000000, 113.000074) scale(-1, -1) translate(-112.000000, -113.000074) "></path>
    </g>
</svg>